<?xml version="1.0" standalone="no"?>
<!DOCTYPE svg PUBLIC "-//W3C//DTD SVG 20010904//EN"
 "http://www.w3.org/TR/2001/REC-SVG-20010904/DTD/svg10.dtd">
<svg version="1.0" xmlns="http://www.w3.org/2000/svg"
 width="640.000000pt" height="640.000000pt" viewBox="0 0 640.000000 640.000000"
 preserveAspectRatio="xMidYMid meet">
<metadata>
Created by potrace 1.14, written by Peter Selinger 2001-2017
</metadata>
<g transform="translate(0.000000,640.000000) scale(0.100000,-0.100000)"
fill="#000000" stroke="none">
<path d="M3612 4820 c-12 -39 -66 -267 -122 -508 -55 -240 -104 -446 -109
-457 -10 -23 -15 -25 -241 -91 -154 -45 -213 -62 -365 -103 -44 -12 -132 -37
-195 -56 -163 -47 -629 -161 -705 -172 l-42 -5 -45 63 c-79 111 -145 189 -306
363 -284 308 -344 366 -374 366 -24 0 -29 -6 -43 -52 -9 -29 -29 -161 -45
-293 -30 -248 -63 -498 -80 -620 -6 -38 -15 -110 -21 -160 -5 -49 -14 -128
-19 -175 -9 -77 -17 -159 -50 -555 -6 -71 -22 -301 -35 -510 -23 -365 -37
-509 -71 -770 -9 -66 -20 -149 -24 -185 -20 -158 -65 -458 -105 -690 -8 -47
-17 -103 -20 -125 -4 -22 -9 -50 -12 -63 -5 -22 -4 -22 89 -22 l95 0 11 37
c15 52 59 286 77 413 79 560 85 621 115 1195 48 952 61 1144 115 1770 14 160
31 372 38 472 l12 182 72 -88 c40 -48 85 -101 100 -117 16 -16 53 -58 83 -94
30 -35 64 -73 75 -85 22 -23 102 -115 160 -185 21 -25 55 -71 77 -103 40 -59
80 -93 96 -83 6 3 63 13 128 21 194 26 516 100 1094 254 63 17 126 34 140 37
14 4 79 22 145 40 65 19 129 34 142 34 12 0 34 10 48 23 22 19 30 42 55 172
69 348 103 568 115 738 4 54 11 95 16 90 4 -4 28 -55 52 -113 56 -133 198
-423 254 -518 24 -40 43 -77 43 -81 0 -5 4 -11 9 -13 5 -1 17 -19 27 -38 57
-105 118 -171 149 -161 6 2 60 8 120 12 61 4 135 11 165 14 243 26 440 40 440
32 0 -9 -39 -109 -49 -128 -16 -29 -60 -242 -72 -349 -33 -298 46 -621 192
-791 57 -66 64 -55 -86 -149 -155 -97 -189 -119 -200 -128 -5 -4 -50 -33 -100
-63 -49 -31 -106 -67 -126 -80 -20 -13 -61 -40 -92 -59 -52 -33 -56 -38 -61
-80 -11 -89 -4 -329 14 -525 30 -322 41 -591 43 -1062 l2 -443 68 0 67 0 0 63
c-1 248 -21 1159 -30 1322 -10 200 -26 438 -36 527 -5 47 -5 47 38 69 55 28
414 265 559 369 61 44 117 80 124 80 8 0 20 8 27 18 7 10 56 48 108 84 204
143 248 175 339 245 119 92 250 218 336 323 48 59 124 192 159 280 76 186 56
367 -57 518 -55 73 -188 151 -294 173 -51 10 -95 10 -269 -4 -335 -27 -749
-74 -1129 -128 -38 -5 -95 -12 -126 -16 l-55 -5 -45 63 c-42 59 -57 83 -112
179 -48 83 -207 379 -207 385 0 2 -13 26 -28 52 -16 26 -50 90 -77 141 -43 82
-100 152 -124 152 -4 0 -17 -32 -29 -70z m2133 -934 c18 -13 14 -14 -30 -9
-63 7 -83 23 -29 23 22 0 49 -6 59 -14z m-485 -16 c0 -5 -19 -10 -42 -10 -32
0 -39 3 -28 10 20 13 70 13 70 0z m-250 -15 c0 -8 -7 -15 -16 -15 -14 0 -14 3
-4 15 7 8 14 15 16 15 2 0 4 -7 4 -15z m404 -26 c-8 -13 -30 -11 -43 4 -8 11
-5 13 19 9 16 -2 27 -8 24 -13z m-31 -139 c3 -46 -19 -49 -26 -4 -4 21 -4 41
0 46 9 16 25 -8 26 -42z m-69 -6 c10 -25 7 -59 -6 -72 -13 -13 -90 -17 -102
-5 -7 7 79 93 93 93 5 0 12 -7 15 -16z m322 -85 c4 -34 0 -54 -18 -89 -27 -51
-48 -63 -48 -27 0 13 -7 44 -15 68 -18 49 -15 68 16 118 l21 34 19 -30 c10
-16 21 -50 25 -74z m-529 37 c-11 -47 -30 -67 -47 -50 -5 5 4 29 21 58 17 26
32 46 34 45 2 -2 -2 -26 -8 -53z m867 -6 c12 -34 15 -59 10 -82 -7 -33 -8 -32
-19 22 -7 30 -16 67 -20 83 -13 47 10 29 29 -23z m-134 -2 c11 -18 20 -43 20
-54 0 -23 -25 -50 -33 -37 -8 13 -20 123 -13 123 3 0 15 -15 26 -32z m-836
-35 c-8 -32 -24 -55 -24 -32 0 26 12 59 21 59 5 0 6 -12 3 -27z m766 -52 c0
-37 -13 -61 -23 -44 -7 13 5 83 14 83 5 0 9 -18 9 -39z m-860 -97 c0 -14 -4
-22 -10 -19 -5 3 -10 17 -10 31 0 14 4 22 10 19 6 -3 10 -17 10 -31z m420 -22
c0 -13 -12 -22 -22 -16 -10 6 -1 24 13 24 5 0 9 -4 9 -8z m520 -112 c0 -5 -4
-10 -10 -10 -5 0 -10 5 -10 10 0 6 5 10 10 10 6 0 10 -4 10 -10z m-650 -50 c0
-5 -5 -10 -11 -10 -5 0 -7 5 -4 10 3 6 8 10 11 10 2 0 4 -4 4 -10z m350 -34
c-16 -48 -35 -60 -27 -16 7 33 26 64 34 56 3 -3 0 -21 -7 -40z m228 16 c6 -18
-15 -14 -22 4 -4 10 -1 14 6 12 6 -2 14 -10 16 -16z m-670 -14 c-2 -13 -11
-24 -21 -26 -15 -3 -16 0 -6 22 15 32 32 34 27 4z m-163 -201 c22 -58 9 -84
-21 -40 -21 31 -32 163 -18 211 6 21 9 12 14 -48 3 -41 14 -97 25 -123z m745
163 c0 -5 -4 -10 -10 -10 -5 0 -10 5 -10 10 0 6 5 10 10 10 6 0 10 -4 10 -10z
m-320 -69 c0 -11 -4 -23 -10 -26 -6 -4 -10 5 -10 19 0 14 5 26 10 26 6 0 10
-9 10 -19z m137 11 c7 -5 9 -13 3 -22 -7 -11 -11 -11 -24 -1 -24 20 -6 40 21
23z m-426 -85 c-8 -8 -11 -7 -11 4 0 20 13 34 18 19 3 -7 -1 -17 -7 -23z m553
4 c7 -10 -41 -71 -55 -71 -5 0 1 18 12 40 21 40 33 48 43 31z m-190 -57 c9
-34 -2 -84 -18 -84 -6 0 -18 17 -25 38 -8 20 -16 42 -18 49 -4 10 13 19 43 22
7 0 15 -11 18 -25z m-108 -80 c13 -45 3 -74 -26 -74 -37 0 -52 59 -24 98 21
31 36 23 50 -24z m-233 -99 c13 -19 15 -25 4 -25 -17 0 -37 20 -37 37 0 20 13
15 33 -12z m98 -118 c-1 -4 -3 -7 -6 -7 -3 0 -15 0 -27 1 -22 0 -22 1 -3 9 22
9 37 8 36 -3z m-51 -107 c0 -12 -26 -19 -40 -10 -18 11 -3 29 20 23 11 -3 20
-9 20 -13z"/>
<path d="M3531 4844 c0 -11 3 -14 6 -6 3 7 2 16 -1 19 -3 4 -6 -2 -5 -13z"/>
<path d="M3480 4735 c0 -5 5 -17 10 -25 5 -8 10 -10 10 -5 0 6 -5 17 -10 25
-5 8 -10 11 -10 5z"/>
<path d="M3865 4710 c3 -5 8 -10 11 -10 2 0 4 5 4 10 0 6 -5 10 -11 10 -5 0
-7 -4 -4 -10z"/>
<path d="M3885 4670 c9 -30 13 -35 21 -27 3 3 -2 16 -11 29 l-17 23 7 -25z"/>
<path d="M3471 4645 c1 -40 1 -40 11 -12 7 21 7 32 -1 40 -8 8 -11 0 -10 -28z"/>
<path d="M3441 4624 c0 -11 3 -14 6 -6 3 7 2 16 -1 19 -3 4 -6 -2 -5 -13z"/>
<path d="M3934 4594 c5 -11 9 -23 10 -29 7 -41 56 -87 56 -54 0 6 -4 7 -10 4
-14 -9 -12 29 3 44 10 11 8 11 -10 2 -19 -10 -22 -8 -25 16 -2 14 -9 29 -17
31 -10 3 -12 0 -7 -14z"/>
<path d="M3450 4564 c0 -14 4 -23 10 -19 6 3 10 15 10 26 0 10 -4 19 -10 19
-5 0 -10 -12 -10 -26z"/>
<path d="M3441 4514 c0 -11 3 -14 6 -6 3 7 2 16 -1 19 -3 4 -6 -2 -5 -13z"/>
<path d="M3990 4469 c0 -5 5 -7 10 -4 6 3 10 8 10 11 0 2 -4 4 -10 4 -5 0 -10
-5 -10 -11z"/>
<path d="M4025 4470 c4 -6 11 -8 16 -5 14 9 11 15 -7 15 -8 0 -12 -5 -9 -10z"/>
<path d="M4013 4428 c26 -48 29 -51 38 -37 8 12 11 11 19 -1 5 -8 10 -10 10
-5 0 20 -17 38 -24 26 -11 -18 -24 -13 -28 11 -2 12 -9 23 -15 25 -10 4 -10 0
0 -19z"/>
<path d="M3400 4373 c0 -16 -3 -46 -5 -68 -4 -28 -3 -34 3 -20 14 32 23 115
12 115 -6 0 -10 -12 -10 -27z"/>
<path d="M4050 4361 c0 -6 5 -13 10 -16 6 -3 10 1 10 9 0 9 -4 16 -10 16 -5 0
-10 -4 -10 -9z"/>
<path d="M4090 4301 c0 -11 5 -23 10 -26 6 -3 10 -14 10 -23 0 -9 9 -28 20
-42 16 -20 20 -22 20 -7 0 9 -4 17 -10 17 -5 0 -10 5 -10 11 0 6 7 8 16 5 8
-3 12 -2 9 4 -3 6 -12 10 -20 10 -8 0 -17 15 -21 35 -7 37 -24 48 -24 16z"/>
<path d="M3373 4228 c-4 -7 -8 -35 -9 -63 -2 -53 7 -35 19 38 6 39 4 45 -10
25z"/>
<path d="M4150 4174 c0 -4 6 -15 14 -23 7 -9 28 -45 47 -81 19 -36 38 -68 43
-72 12 -8 78 2 91 13 5 5 27 9 49 9 21 0 36 3 33 7 -4 3 -33 5 -66 4 -53 -1
-61 1 -80 25 -11 14 -27 24 -34 21 -8 -3 -20 -1 -28 4 -11 6 -11 11 -1 21 6 6
12 21 12 33 -1 19 -1 19 -14 3 -7 -10 -16 -18 -20 -18 -9 0 -8 27 2 33 4 2 2
2 -5 1 -7 -2 -19 4 -28 12 -8 9 -15 12 -15 8z"/>
<path d="M972 4150 c0 -14 2 -19 5 -12 2 6 2 18 0 25 -3 6 -5 1 -5 -13z"/>
<path d="M1316 4128 c10 -12 27 -31 38 -43 18 -20 18 -20 6 3 -13 26 -46 62
-57 62 -3 0 2 -10 13 -22z"/>
<path d="M5228 4143 c12 -2 30 -2 40 0 9 3 -1 5 -23 4 -22 0 -30 -2 -17 -4z"/>
<path d="M5468 4143 c18 -2 45 -2 60 0 15 2 0 4 -33 4 -33 0 -45 -2 -27 -4z"/>
<path d="M5153 4133 c9 -2 25 -2 35 0 9 3 1 5 -18 5 -19 0 -27 -2 -17 -5z"/>
<path d="M5353 4133 c9 -2 23 -2 30 0 6 3 -1 5 -18 5 -16 0 -22 -2 -12 -5z"/>
<path d="M5248 4123 c6 -2 18 -2 25 0 6 3 1 5 -13 5 -14 0 -19 -2 -12 -5z"/>
<path d="M5103 4113 c9 -2 25 -2 35 0 9 3 1 5 -18 5 -19 0 -27 -2 -17 -5z"/>
<path d="M962 4090 c0 -14 2 -19 5 -12 2 6 2 18 0 25 -3 6 -5 1 -5 -13z"/>
<path d="M5018 4103 c12 -2 30 -2 40 0 9 3 -1 5 -23 4 -22 0 -30 -2 -17 -4z"/>
<path d="M1390 4070 c-12 -7 -12 -12 4 -29 11 -12 24 -21 30 -21 6 0 3 7 -6
14 -21 15 -23 32 -5 39 6 3 8 6 2 6 -5 0 -17 -3 -25 -9z"/>
<path d="M3310 4075 c0 -1 5 -15 10 -32 7 -20 7 -38 1 -54 -21 -51 -104 -119
-148 -119 -10 0 -27 -7 -37 -15 -22 -17 -5 -20 22 -5 9 5 49 19 88 30 l70 21
12 57 c7 32 12 71 12 86 0 15 4 25 10 21 6 -3 10 -2 10 3 0 5 -11 10 -25 10
-14 0 -25 -2 -25 -3z m-13 -157 c-3 -8 -6 -5 -6 6 -1 11 2 17 5 13 3 -3 4 -12
1 -19z"/>
<path d="M4808 4073 c6 -2 18 -2 25 0 6 3 1 5 -13 5 -14 0 -19 -2 -12 -5z"/>
<path d="M4320 4060 c0 -6 7 -10 15 -10 8 0 15 2 15 4 0 2 -7 6 -15 10 -8 3
-15 1 -15 -4z"/>
<path d="M4703 4063 c9 -2 23 -2 30 0 6 3 -1 5 -18 5 -16 0 -22 -2 -12 -5z"/>
<path d="M6020 4066 c0 -2 8 -10 18 -17 15 -13 16 -12 3 4 -13 16 -21 21 -21
13z"/>
<path d="M3287 4011 c-3 -12 -1 -21 3 -21 15 0 23 21 12 32 -6 6 -11 2 -15
-11z"/>
<path d="M6142 3986 c7 -8 15 -12 17 -11 5 6 -10 25 -20 25 -5 0 -4 -6 3 -14z"/>
<path d="M1466 3966 c6 -16 34 -30 34 -18 0 10 -22 32 -32 32 -4 0 -5 -6 -2
-14z"/>
<path d="M6130 3966 c0 -2 8 -10 18 -17 15 -13 16 -12 3 4 -13 16 -21 21 -21
13z"/>
<path d="M933 3905 c0 -22 2 -30 4 -17 2 12 2 30 0 40 -3 9 -5 -1 -4 -23z"/>
<path d="M1533 3913 c-15 -5 -17 -23 -4 -23 5 0 11 7 15 15 3 8 4 15 3 14 -1
0 -8 -3 -14 -6z"/>
<path d="M3180 3900 c0 -5 5 -10 10 -10 6 0 10 5 10 10 0 6 -4 10 -10 10 -5 0
-10 -4 -10 -10z"/>
<path d="M6230 3885 c0 -14 -3 -15 -15 -5 -9 7 -15 8 -15 2 0 -17 30 -23 37
-6 3 8 3 18 -1 21 -3 4 -6 -2 -6 -12z"/>
<path d="M1550 3880 c0 -5 5 -10 11 -10 5 0 7 5 4 10 -3 6 -8 10 -11 10 -2 0
-4 -4 -4 -10z"/>
<path d="M1570 3852 c0 -4 16 -22 35 -41 21 -20 35 -27 35 -19 0 8 -11 21 -25
28 -14 7 -25 19 -25 27 0 7 -4 13 -10 13 -5 0 -10 -4 -10 -8z"/>
<path d="M3048 3823 c7 -3 16 -2 19 1 4 3 -2 6 -13 5 -11 0 -14 -3 -6 -6z"/>
<path d="M2940 3811 c0 -5 7 -12 16 -15 24 -9 27 -7 10 9 -17 17 -26 19 -26 6z"/>
<path d="M2998 3813 c7 -3 16 -2 19 1 4 3 -2 6 -13 5 -11 0 -14 -3 -6 -6z"/>
<path d="M6260 3786 c0 -14 4 -27 8 -30 5 -3 6 8 4 25 -5 35 -12 38 -12 5z"/>
<path d="M906 3728 c-15 -165 -16 -205 -6 -168 11 40 26 240 18 240 -3 0 -8
-33 -12 -72z"/>
<path d="M882 3765 c0 -16 2 -22 5 -12 2 9 2 23 0 30 -3 6 -5 -1 -5 -18z"/>
<path d="M1650 3766 c0 -4 7 -14 15 -22 8 -9 15 -11 15 -6 0 5 -7 15 -15 22
-8 7 -15 9 -15 6z"/>
<path d="M2790 3750 c-9 -6 -10 -10 -3 -10 6 0 15 5 18 10 8 12 4 12 -15 0z"/>
<path d="M2650 3720 c-11 -8 -7 -9 15 -4 37 8 45 14 19 14 -10 0 -26 -5 -34
-10z"/>
<path d="M1700 3716 c0 -2 7 -9 15 -16 13 -11 14 -10 9 4 -5 14 -24 23 -24 12z"/>
<path d="M2575 3700 l-20 -9 20 0 c11 0 27 4 35 9 13 9 13 10 0 9 -8 0 -24 -4
-35 -9z"/>
<path d="M6311 3694 c0 -11 3 -14 6 -6 3 7 2 16 -1 19 -3 4 -6 -2 -5 -13z"/>
<path d="M881 3664 c0 -11 3 -14 6 -6 3 7 2 16 -1 19 -3 4 -6 -2 -5 -13z"/>
<path d="M1741 3671 c-8 -5 -9 -11 -3 -15 5 -3 12 1 16 9 6 17 6 18 -13 6z"/>
<path d="M6292 3660 c0 -14 2 -19 5 -12 2 6 2 18 0 25 -3 6 -5 1 -5 -13z"/>
<path d="M2425 3655 c-39 -18 -11 -18 35 0 22 8 28 13 15 13 -11 0 -33 -6 -50
-13z"/>
<path d="M1760 3645 c0 -3 5 -11 10 -18 6 -7 20 -25 32 -41 20 -27 22 -27 30
-10 6 14 7 12 3 -8 -7 -37 19 -62 58 -54 16 3 34 6 40 6 6 0 -9 18 -34 41 -32
30 -49 39 -66 35 -16 -5 -23 -1 -28 14 -6 18 -45 49 -45 35z"/>
<path d="M2340 3630 c-18 -12 -2 -12 25 0 13 6 15 9 5 9 -8 0 -22 -4 -30 -9z"/>
<path d="M6312 3615 c0 -16 2 -22 5 -12 2 9 2 23 0 30 -3 6 -5 -1 -5 -18z"/>
<path d="M2168 3583 c7 -3 16 -2 19 1 4 3 -2 6 -13 5 -11 0 -14 -3 -6 -6z"/>
<path d="M2090 3570 c-13 -9 -13 -10 0 -10 8 0 22 5 30 10 13 9 13 10 0 10 -8
0 -22 -5 -30 -10z"/>
<path d="M2008 3563 c7 -3 16 -2 19 1 4 3 -2 6 -13 5 -11 0 -14 -3 -6 -6z"/>
<path d="M6291 3537 c-1 -21 -8 -54 -16 -74 -8 -19 -15 -44 -15 -53 0 -10 -3
-20 -7 -22 -5 -1 -19 -28 -32 -58 -13 -30 -28 -65 -34 -77 -5 -12 -7 -29 -3
-38 4 -12 2 -16 -8 -12 -8 3 -26 -11 -45 -38 -17 -24 -31 -45 -31 -48 0 -8
-65 -79 -170 -186 -112 -113 -155 -152 -209 -191 -19 -14 -42 -32 -51 -40 -31
-29 -93 -75 -174 -131 -45 -30 -107 -74 -139 -97 -33 -22 -64 -43 -70 -46 -8
-3 -7 -8 3 -16 13 -10 12 -11 -3 -6 -13 4 -28 -3 -47 -24 -15 -16 -37 -30 -48
-30 -11 0 -25 -7 -32 -15 -7 -8 -18 -15 -25 -15 -8 0 -15 -3 -17 -8 -5 -11
-186 -142 -197 -142 -5 0 -11 -4 -13 -8 -4 -10 -317 -216 -340 -225 -21 -8
-24 -69 -7 -162 9 -51 20 -253 19 -348 0 -17 4 -26 10 -22 5 3 10 27 11 53 0
26 4 70 9 97 5 31 6 5 2 -70 -3 -66 -10 -123 -15 -127 -7 -4 -7 -41 0 -115 5
-59 8 -225 6 -368 -4 -279 4 -528 17 -520 14 9 18 -45 12 -201 -4 -138 -3
-154 12 -154 14 0 16 21 16 200 0 127 -4 200 -10 200 -6 0 -11 124 -12 348 -1
297 -3 323 -8 182 -4 -91 -8 -194 -9 -229 0 -35 -3 -62 -7 -59 -5 6 11 571 21
698 l4 65 -14 -45 c-13 -41 -14 -42 -10 -10 15 117 17 168 10 245 -7 91 -13
100 -26 38 -4 -25 -6 -10 -4 47 3 87 26 160 51 160 14 0 74 57 74 70 0 5 -5
10 -12 12 -9 3 -9 6 0 12 7 4 12 2 12 -3 0 -19 18 -12 50 20 21 22 29 38 25
53 -2 11 -2 15 1 9 8 -19 27 -16 41 6 7 11 25 26 40 33 15 8 27 20 25 27 -2 9
4 12 18 8 13 -3 20 0 20 9 0 8 8 14 18 14 21 0 52 30 52 49 0 8 6 11 17 7 10
-4 14 -4 10 1 -4 4 12 15 35 24 30 12 43 23 42 36 0 15 5 18 26 15 16 -2 31 3
39 12 8 9 20 16 27 16 7 0 23 14 36 30 14 20 28 28 39 25 20 -7 83 51 75 70
-3 8 2 11 15 8 10 -3 19 -1 19 5 0 6 10 14 23 18 22 7 54 43 50 56 -2 4 4 5
12 2 8 -4 17 1 21 10 3 9 15 16 25 16 10 0 28 13 40 29 12 17 44 39 71 51 38
16 49 26 45 39 -3 14 1 16 23 13 22 -3 33 4 61 39 19 24 51 58 71 77 22 20 35
39 31 48 -3 8 -1 14 5 14 6 0 12 -5 14 -11 5 -16 38 1 38 21 0 18 24 43 53 53
9 4 21 17 27 31 5 13 18 31 30 39 20 14 20 16 5 25 -11 6 -14 12 -7 16 6 3 13
2 17 -4 13 -21 25 -9 19 18 -6 23 -5 25 8 15 17 -15 40 1 31 23 -3 7 2 21 11
29 9 9 16 23 16 31 0 8 6 14 13 13 29 -4 37 4 53 56 10 30 21 55 26 55 4 0 8
6 8 14 0 8 7 21 15 30 24 24 45 93 38 126 -3 17 -1 36 4 42 17 21 22 61 13 98
l-8 35 -1 -38z m-21 -167 c0 -5 -4 -10 -10 -10 -5 0 -10 5 -10 10 0 6 5 10 10
10 6 0 10 -4 10 -10z m-116 -236 c3 -8 2 -12 -4 -9 -6 3 -10 10 -10 16 0 14 7
11 14 -7z m-494 -478 c0 -2 -7 -7 -16 -10 -8 -3 -12 -2 -9 4 6 10 25 14 25 6z
m-75 -66 c-3 -5 -12 -10 -18 -10 -7 0 -6 4 3 10 19 12 23 12 15 0z m-315 -234
c0 -3 -4 -8 -10 -11 -5 -3 -10 -1 -10 4 0 6 5 11 10 11 6 0 10 -2 10 -4z
m-330 -226 c0 -5 -5 -10 -11 -10 -5 0 -7 5 -4 10 3 6 8 10 11 10 2 0 4 -4 4
-10z m-323 -897 c-3 -10 -5 -2 -5 17 0 19 2 27 5 18 2 -10 2 -26 0 -35z m16
-813 c3 -34 2 -47 -3 -35 -8 19 -14 103 -6 94 2 -2 6 -29 9 -59z"/>
<path d="M1968 3543 c6 -2 18 -2 25 0 6 3 1 5 -13 5 -14 0 -19 -2 -12 -5z"/>
<path d="M882 3480 c0 -14 2 -19 5 -12 2 6 2 18 0 25 -3 6 -5 1 -5 -13z"/>
<path d="M860 3403 c0 -56 16 -75 22 -27 5 42 1 64 -13 64 -5 0 -9 -17 -9 -37z"/>
<path d="M846 3293 c-8 -49 -8 -158 0 -150 6 6 17 187 10 187 -2 0 -6 -17 -10
-37z"/>
<path d="M810 3290 c0 -5 5 -10 11 -10 5 0 7 5 4 10 -3 6 -8 10 -11 10 -2 0
-4 -4 -4 -10z"/>
<path d="M823 3105 c0 -75 2 -93 9 -72 6 17 6 55 1 100 l-9 72 -1 -100z"/>
<path d="M2824 3176 c-46 -21 -103 -82 -130 -140 -47 -102 -20 -230 61 -285
43 -29 126 -39 178 -22 45 15 111 63 133 96 40 60 37 196 -5 257 -59 85 -164
127 -237 94z"/>
<path d="M6127 3073 c-9 -9 -9 -33 1 -33 4 0 13 9 20 20 10 16 10 20 -1 20 -8
0 -17 -3 -20 -7z"/>
<path d="M801 2924 c0 -21 4 -48 9 -59 5 -12 6 1 3 35 -7 66 -13 79 -12 24z"/>
<path d="M803 2785 c0 -33 2 -45 4 -27 2 18 2 45 0 60 -2 15 -4 0 -4 -33z"/>
<path d="M780 2686 c0 -19 -5 -47 -11 -63 -18 -45 -38 -236 -26 -251 11 -14
12 -95 3 -232 -4 -57 -3 -87 3 -75 11 27 24 291 15 307 -10 16 -13 89 -5 103
3 6 9 -10 12 -35 4 -31 6 -11 7 62 1 59 7 110 12 113 6 3 10 28 10 56 0 27 -4
49 -10 49 -5 0 -10 -15 -10 -34z m-13 -173 c-3 -10 -5 -2 -5 17 0 19 2 27 5
18 2 -10 2 -26 0 -35z"/>
<path d="M727 2300 c3 -30 7 -57 9 -59 8 -9 2 75 -6 94 -5 12 -6 -1 -3 -35z"/>
<path d="M733 1935 c0 -38 2 -53 4 -32 2 20 2 52 0 70 -2 17 -4 1 -4 -38z"/>
<path d="M720 1733 c0 -22 2 -25 10 -13 13 20 13 40 0 40 -5 0 -10 -12 -10
-27z"/>
<path d="M4610 1738 c0 -19 2 -20 10 -8 13 19 13 30 0 30 -5 0 -10 -10 -10
-22z"/>
<path d="M696 1568 c-9 -145 -9 -238 -2 -245 6 -6 10 92 6 131 -1 10 3 30 8
45 16 41 21 181 7 181 -8 0 -14 -35 -19 -112z"/>
<path d="M660 1343 c0 -22 -2 -53 -4 -69 -2 -16 -1 -21 1 -11 4 16 23 25 23
10 0 -5 -9 -44 -19 -88 -11 -44 -19 -111 -19 -150 1 -45 -3 -70 -10 -73 -14
-4 -17 -98 -4 -106 11 -7 30 154 26 219 -3 30 -1 43 4 32 5 -12 12 15 20 79 9
71 9 99 1 104 -6 4 -9 23 -8 43 2 20 0 39 -4 43 -4 4 -7 -11 -7 -33z"/>
<path d="M641 1344 c0 -11 3 -14 6 -6 3 7 2 16 -1 19 -3 4 -6 -2 -5 -13z"/>
<path d="M590 815 c0 -8 5 -15 10 -15 6 0 10 -8 10 -17 0 -14 2 -15 13 -4 10
11 10 14 0 18 -7 3 -13 11 -13 19 0 8 -4 14 -10 14 -5 0 -10 -7 -10 -15z"/>
<path d="M596 732 c1 -18 -4 -63 -11 -100 -8 -37 -14 -96 -14 -132 1 -76 3
-70 19 70 7 58 17 113 22 124 7 12 7 21 0 25 -5 3 -12 15 -15 26 -2 11 -3 5
-1 -13z"/>
<path d="M540 363 c0 -21 5 -45 10 -53 7 -11 10 -6 10 22 0 20 3 43 6 52 4 11
1 16 -10 16 -12 0 -16 -10 -16 -37z"/>
<path d="M4612 158 c-2 -90 -1 -161 1 -158 7 8 16 320 8 320 -3 0 -8 -73 -9
-162z"/>
<path d="M523 228 c-18 -93 -15 -139 3 -58 8 36 13 79 12 95 -2 21 -7 11 -15
-37z"/>
<path d="M490 250 c0 -5 5 -10 11 -10 5 0 7 5 4 10 -3 6 -8 10 -11 10 -2 0 -4
-4 -4 -10z"/>
<path d="M486 91 c2 -24 4 -56 5 -70 1 -20 3 -17 10 13 6 24 6 42 0 45 -5 3
-11 17 -14 31 -2 14 -3 5 -1 -19z"/>
</g>
</svg>
