<?xml version="1.0" standalone="no"?>
<!DOCTYPE svg PUBLIC "-//W3C//DTD SVG 20010904//EN"
 "http://www.w3.org/TR/2001/REC-SVG-20010904/DTD/svg10.dtd">
<svg version="1.0" xmlns="http://www.w3.org/2000/svg"
 width="1080.000000pt" height="1080.000000pt" viewBox="0 0 1080.000000 1080.000000"
 preserveAspectRatio="xMidYMid meet">
<metadata>
Created by potrace 1.14, written by Peter Selinger 2001-2017
</metadata>
<g transform="translate(0.000000,1080.000000) scale(0.100000,-0.100000)"
fill="#000000" stroke="none">
<path d="M6530 7744 c-52 -8 -151 -21 -220 -29 -69 -8 -179 -22 -245 -30 -66
-9 -228 -29 -360 -45 -132 -17 -332 -42 -445 -56 -113 -14 -215 -25 -227 -25
-12 0 -25 -4 -28 -9 -8 -12 14 -12 190 0 77 6 203 15 280 20 127 9 536 35 950
60 88 5 177 12 197 16 33 5 48 -2 150 -67 62 -40 118 -77 123 -81 6 -5 96 -65
200 -133 105 -69 197 -129 205 -135 8 -6 65 -43 125 -82 61 -40 195 -128 298
-196 104 -68 196 -126 205 -129 31 -13 0 17 -101 93 -394 299 -483 366 -572
434 -55 42 -122 93 -150 114 -27 20 -66 50 -85 65 -19 16 -96 74 -170 130
-153 115 -138 111 -320 85z"/>
<path d="M6510 7609 c-30 -5 -158 -20 -285 -34 -126 -13 -309 -33 -405 -44
-288 -33 -634 -71 -820 -91 -96 -10 -211 -24 -255 -30 -89 -12 -279 -33 -455
-50 -63 -6 -121 -13 -129 -16 -8 -3 -125 -16 -260 -29 -135 -14 -256 -27 -269
-30 -12 -3 -129 -17 -260 -30 -130 -14 -291 -32 -357 -40 -66 -8 -163 -19
-215 -25 -52 -6 -100 -16 -106 -23 -10 -11 -39 -93 -209 -582 -34 -99 -67
-192 -73 -207 -6 -15 -19 -53 -28 -85 -9 -32 -20 -62 -24 -68 -4 -5 -17 -41
-29 -80 -12 -38 -25 -79 -30 -90 -5 -11 -19 -49 -30 -85 -21 -64 -48 -118 -38
-75 5 19 56 196 97 335 48 163 50 173 35 160 -8 -6 -19 -28 -26 -48 -6 -20
-45 -127 -86 -237 -41 -110 -106 -285 -145 -390 -39 -104 -74 -199 -79 -210
-28 -68 -65 -161 -89 -230 -16 -44 -40 -111 -54 -149 -14 -38 -26 -79 -26 -91
0 -11 36 -79 81 -151 88 -139 248 -400 344 -558 57 -93 118 -191 150 -241 18
-27 80 -129 138 -225 59 -96 110 -179 114 -185 5 -5 19 -27 31 -47 22 -35 26
-37 90 -42 37 -4 103 -11 147 -17 44 -5 211 -21 370 -35 328 -27 468 -40 605
-54 52 -5 139 -12 192 -16 l97 -7 142 -146 c415 -425 481 -491 490 -491 7 0 8
7 4 18 -4 9 -40 118 -81 242 -42 124 -79 234 -84 245 -5 11 -18 49 -29 85 -11
36 -27 85 -36 109 -9 24 -14 45 -12 47 2 3 109 0 238 -6 129 -5 434 -16 679
-25 245 -8 524 -20 620 -25 96 -6 315 -15 485 -21 171 -6 378 -14 460 -18
l150 -8 -121 -1 c-278 -4 -577 -16 -553 -23 41 -10 169 -18 579 -34 206 -8
409 -17 450 -20 41 -3 147 -8 235 -11 88 -3 163 -8 167 -10 4 -3 18 -2 31 2
18 4 30 18 42 52 9 26 25 70 36 97 37 98 118 323 189 520 39 110 77 214 84
230 8 17 19 48 26 70 7 22 18 54 25 70 8 17 23 59 35 95 12 36 25 74 30 85 20
44 50 131 50 145 0 29 -31 -27 -258 -470 -70 -136 -106 -198 -83 -140 52 131
117 298 137 355 14 39 36 94 50 123 13 29 24 55 24 59 0 6 65 175 80 208 5 11
32 81 60 155 29 74 85 220 126 323 41 103 74 194 74 202 0 8 3 15 8 15 4 0 13
18 20 41 7 22 44 119 82 215 39 97 70 190 70 208 0 35 -7 40 -198 171 -40 28
-159 109 -265 182 -106 72 -250 171 -322 219 -71 49 -132 91 -135 95 -3 3 -39
28 -80 54 -41 26 -77 51 -80 54 -3 4 -68 49 -145 101 -77 52 -163 110 -191
130 -29 19 -101 68 -160 109 -60 41 -143 98 -184 126 -83 57 -411 282 -476
327 -45 30 -85 34 -194 17z m153 -205 c150 -97 230 -147 337 -213 227 -140
276 -171 285 -178 6 -5 26 -18 45 -29 35 -21 553 -347 770 -484 63 -40 163
-102 222 -139 233 -144 519 -325 523 -330 3 -6 -31 -92 -65 -166 -11 -22 -26
-58 -33 -80 -8 -22 -68 -166 -132 -320 -65 -154 -126 -302 -137 -330 -11 -27
-28 -68 -37 -90 -10 -22 -24 -56 -31 -75 -7 -19 -21 -53 -30 -75 -10 -22 -46
-107 -80 -190 -34 -82 -68 -163 -75 -180 -7 -16 -32 -77 -55 -135 -23 -58 -53
-129 -66 -158 -13 -29 -24 -55 -24 -57 0 -3 -9 -24 -19 -48 -25 -54 -191 -457
-191 -462 0 -3 -14 -34 -30 -70 l-30 -66 -58 5 c-31 3 -149 10 -262 16 -113 6
-252 15 -310 20 -58 6 -233 17 -390 25 -157 8 -377 22 -490 30 -113 9 -401 27
-640 40 -239 14 -570 34 -735 45 -345 22 -433 26 -441 18 -3 -3 4 -40 14 -82
11 -42 16 -79 11 -82 -5 -3 -33 14 -63 38 -66 53 -336 252 -347 256 -4 2 8
-38 28 -88 19 -50 34 -93 32 -94 -2 -2 -312 -5 -689 -7 l-684 -4 -48 80 c-26
44 -61 105 -76 135 -16 30 -62 116 -103 190 -42 74 -135 243 -208 375 -73 132
-155 278 -181 325 -26 47 -65 117 -86 156 l-39 72 119 358 c65 198 124 373
131 389 11 27 114 335 315 945 40 118 75 222 79 230 4 8 18 50 31 92 13 43 28
82 35 88 13 11 34 13 625 64 223 20 500 44 615 56 116 11 296 27 400 35 105 8
228 20 275 25 47 6 213 22 370 35 336 29 856 75 1165 104 121 11 238 22 260
24 116 10 123 9 198 -39z"/>
<path d="M5708 6142 c-49 -22 -119 -121 -232 -325 -91 -165 -194 -368 -216
-427 -7 -19 -17 -39 -21 -45 -3 -5 -10 -26 -14 -45 -4 -19 -18 -71 -32 -115
-17 -53 -27 -113 -30 -180 l-5 -100 32 -43 c20 -26 43 -45 60 -48 15 -3 40
-17 55 -30 30 -26 58 -30 101 -14 29 11 24 25 -11 32 -27 5 -27 39 1 163 22
97 64 223 104 311 11 24 20 48 20 53 0 6 6 11 13 11 7 0 36 48 65 108 28 59
66 135 84 168 18 34 39 76 46 93 16 37 30 40 36 9 3 -13 10 -52 17 -88 22
-118 68 -243 137 -375 51 -99 188 -282 275 -367 15 -15 27 -32 27 -37 0 -6 7
-8 15 -5 11 4 19 -3 26 -24 6 -17 22 -39 37 -48 33 -22 105 -37 99 -20 -19 45
-19 51 2 26 l20 -25 -11 37 c-9 29 -8 48 1 80 55 192 255 574 380 726 25 31
58 73 73 93 l26 36 -33 36 c-19 20 -42 37 -52 37 -11 0 -24 5 -30 11 -15 15
-46 4 -94 -37 -23 -19 -44 -32 -48 -29 -3 4 10 20 29 36 34 30 34 30 5 15 -32
-15 -108 -91 -169 -168 -73 -91 -203 -322 -211 -373 -2 -11 -21 -69 -43 -129
l-39 -109 -30 44 c-96 143 -186 337 -217 469 -8 30 -18 54 -24 53 -12 -3 -13
0 -37 99 -20 83 -35 267 -23 290 5 10 4 19 -3 23 -7 5 -5 13 7 26 9 10 14 25
11 33 -3 8 -1 17 6 19 8 3 6 11 -7 26 -11 12 -26 19 -33 17 -7 -3 -13 1 -13 8
0 18 -22 26 -49 19 -12 -3 -21 -1 -21 6 0 15 -19 13 -62 -7z m40 -329 c-24
-49 -33 -63 -40 -63 -6 0 -8 3 -6 8 24 48 33 62 40 62 6 0 8 -3 6 -7z m52 -35
c0 -36 -4 -35 -14 5 -4 16 -2 27 4 27 5 0 10 -14 10 -32z m-208 -262 c-59
-118 -110 -214 -114 -215 -11 -1 23 75 103 234 65 128 104 195 114 195 3 0
-44 -96 -103 -214z m825 -133 c-55 -108 -134 -317 -145 -383 -4 -25 -12 -45
-17 -45 -22 0 -14 58 20 146 48 122 154 344 161 337 3 -3 -6 -28 -19 -55z
m-1111 -215 c-13 -53 -30 -139 -36 -192 -8 -63 -17 -96 -24 -93 -18 6 -18 69
-1 143 17 76 75 247 82 240 2 -2 -7 -46 -21 -98z m99 -87 c-7 -21 -19 -74 -26
-117 -15 -92 -33 -127 -24 -44 10 84 45 200 60 200 2 0 -2 -17 -10 -39z"/>
<path d="M3575 6045 c-104 -18 -257 -56 -285 -70 -14 -7 -71 -29 -128 -49
-138 -48 -232 -102 -232 -133 0 -17 36 -53 46 -45 4 4 4 -1 0 -12 -9 -25 10
-46 41 -46 22 0 24 3 19 25 -6 22 0 27 66 59 138 65 342 113 578 135 91 9 107
8 123 -6 9 -9 14 -19 10 -22 -5 -3 -14 -17 -22 -31 l-14 -25 29 25 c16 14 30
28 32 33 5 11 32 9 32 -3 0 -5 -4 -10 -10 -10 -5 0 -10 -6 -10 -14 0 -11 -34
-45 -130 -130 -31 -27 -110 -77 -110 -69 0 4 34 37 75 72 41 36 72 67 70 70
-3 2 -22 -11 -43 -31 -20 -20 -71 -61 -112 -91 -41 -31 -86 -65 -100 -75 -20
-16 -77 -25 -305 -50 -366 -41 -389 -48 -360 -118 21 -51 44 -76 66 -69 30 10
253 34 262 28 9 -5 -34 -34 -185 -127 -106 -65 -189 -112 -243 -139 -49 -25
-268 -149 -312 -177 -33 -21 -30 -55 7 -72 34 -15 36 -20 15 -38 -23 -19 -18
-43 18 -85 l34 -39 68 17 c38 10 72 21 75 26 6 11 194 55 300 70 136 19 493
60 585 66 50 4 95 11 102 17 12 10 151 28 169 21 15 -6 37 24 28 38 -5 9 -51
10 -178 5 -220 -9 -560 -35 -658 -51 -35 -6 -37 12 -3 25 57 22 665 67 762 57
57 -6 68 3 28 21 -20 9 -92 8 -308 -3 -155 -8 -304 -17 -330 -19 -27 -3 -45
-1 -42 4 3 5 60 41 128 81 67 39 138 81 157 94 97 62 349 231 380 255 19 15
59 38 88 50 28 12 53 26 53 31 1 5 2 13 3 18 0 5 27 38 59 72 33 35 67 81 78
101 34 67 20 160 -33 210 -15 14 -28 35 -28 45 0 27 -28 51 -89 74 -60 22
-201 24 -316 4z m272 -61 c2 -7 -38 -13 -124 -17 -190 -9 -578 -95 -648 -143
-25 -18 -41 -18 -26 0 38 46 406 154 576 169 82 8 218 2 222 -9z m43 -4 c8 -5
11 -12 8 -16 -10 -9 -38 3 -38 16 0 12 10 13 30 0z m135 -160 c0 -7 -6 -15
-12 -17 -8 -3 -13 4 -13 17 0 13 5 20 13 18 6 -3 12 -11 12 -18z m-745 -424
c0 -8 -182 -117 -187 -112 -3 3 12 15 33 28 21 13 59 37 84 55 40 28 70 41 70
29z m-210 -131 c-7 -8 -17 -15 -22 -15 -6 0 -5 7 2 15 7 8 17 15 22 15 6 0 5
-7 -2 -15z m360 -2 c-1 -9 -63 -52 -168 -114 -40 -24 -116 -70 -169 -102 -53
-32 -100 -56 -106 -54 -10 3 65 53 224 147 23 14 79 49 123 77 81 52 96 60 96
46z m-405 -23 c-4 -6 -25 -20 -48 -31 -46 -24 -45 -19 5 17 35 25 53 30 43 14z
m-125 -74 c0 -3 -4 -8 -10 -11 -5 -3 -10 -1 -10 4 0 6 5 11 10 11 6 0 10 -2
10 -4z m-110 -60 c0 -3 -4 -8 -10 -11 -5 -3 -10 -1 -10 4 0 6 5 11 10 11 6 0
10 -2 10 -4z m-220 -126 c-24 -15 -36 -11 -14 4 10 8 21 12 24 10 2 -3 -2 -9
-10 -14z m310 -50 c0 -5 -7 -10 -16 -10 -8 0 -12 5 -9 10 3 6 10 10 16 10 5 0
9 -4 9 -10z"/>
<path d="M7635 6009 c-199 -47 -453 -198 -631 -375 -76 -77 -167 -184 -131
-155 17 13 24 4 10 -15 -10 -12 15 16 74 84 81 93 283 272 307 272 6 0 -5 -13
-24 -28 -213 -166 -378 -363 -440 -524 -26 -70 -42 -135 -20 -83 13 29 12 -2
-1 -48 -9 -35 -8 -43 17 -80 111 -169 334 -241 601 -193 40 7 70 9 67 4 -26
-42 296 98 412 179 67 47 135 124 133 152 -1 13 -2 13 -6 -1 -2 -10 -8 -18
-13 -18 -12 0 -1 30 18 53 20 22 4 78 -43 150 -42 66 -83 104 -167 156 -91 57
-169 84 -248 85 -59 1 -69 -2 -109 -31 -26 -20 -37 -33 -27 -33 12 0 15 -6 10
-24 -4 -18 1 -30 22 -50 26 -23 30 -24 45 -10 22 20 42 9 34 -17 -7 -22 5 -25
24 -6 10 10 11 9 6 -5 -9 -24 7 -23 47 2 56 34 165 18 196 -28 8 -12 10 -22 5
-22 -6 0 -8 -10 -6 -23 7 -37 -63 -116 -153 -173 -122 -77 -257 -126 -449
-164 l-50 -9 60 5 c85 8 219 38 295 67 36 13 74 28 85 32 11 4 7 -2 -10 -14
-108 -75 -431 -140 -560 -112 -28 6 -30 9 -28 47 3 95 116 257 309 444 189
183 321 272 494 334 114 39 162 49 201 41 35 -8 38 -31 9 -68 -22 -28 -25 -37
-10 -37 5 0 21 20 36 45 14 25 30 45 35 45 16 0 9 -34 -11 -60 -21 -27 -26
-60 -9 -60 21 0 79 68 79 92 0 56 -113 159 -196 179 -50 11 -237 10 -289 -2z
m288 -19 c5 -4 -40 -10 -100 -13 -119 -6 -149 -11 -201 -32 -44 -19 -65 -19
-32 0 82 48 298 77 333 45z m-543 -101 c-19 -12 -48 -30 -63 -41 -16 -11 -31
-18 -33 -15 -6 6 106 76 121 77 6 0 -6 -10 -25 -21z m34 -213 c-10 -8 -21 -12
-23 -10 -3 2 4 11 15 18 10 8 21 12 23 10 3 -2 -4 -11 -15 -18z m-92 -71 c-17
-14 -34 -25 -38 -25 -11 1 48 50 59 50 5 0 -5 -11 -21 -25z m328 -10 c23 -13
17 -14 -70 -14 -86 0 -93 1 -76 14 25 19 113 19 146 0z m-475 -127 c-43 -46
-90 -94 -103 -108 l-25 -25 24 35 c33 48 159 180 172 180 6 0 -25 -37 -68 -82z
m685 -32 c0 -3 -4 -8 -10 -11 -5 -3 -10 -1 -10 4 0 6 5 11 10 11 6 0 10 -2 10
-4z m46 -81 c4 -8 3 -27 -1 -43 l-8 -27 -7 25 c-12 37 -11 60 0 60 6 0 13 -7
16 -15z m-46 -230 c-18 -19 -36 -32 -39 -30 -4 5 58 64 68 65 3 0 -10 -16 -29
-35z m-960 -22 c0 -13 -4 -23 -9 -23 -12 0 -18 29 -13 53 6 24 22 2 22 -30z"/>
<path d="M4825 5943 c-192 -12 -319 -25 -375 -37 -98 -21 -149 -36 -155 -45
-6 -10 23 -23 35 -16 42 26 577 70 759 63 80 -4 98 -2 90 8 -24 29 -162 39
-354 27z"/>
<path d="M4830 5859 c-265 -17 -397 -31 -478 -51 -42 -10 -43 -11 -27 -35 9
-14 14 -32 11 -40 -5 -13 -4 -14 9 -3 19 16 45 6 45 -18 0 -22 -146 -242 -161
-242 -5 0 2 19 16 43 l26 42 -35 -40 c-42 -47 -47 -36 -9 20 21 32 22 36 6 22
-12 -10 -23 -15 -25 -10 -3 4 -3 2 -1 -5 2 -8 -28 -58 -66 -112 -139 -198
-210 -334 -197 -383 2 -9 -3 -21 -12 -27 -15 -8 -14 -9 6 -10 12 0 25 -7 28
-15 6 -14 8 -13 19 2 12 16 14 14 20 -19 14 -72 64 -88 175 -56 69 20 276 55
400 68 199 20 220 23 220 27 0 11 -42 63 -51 63 -6 0 -18 7 -27 16 -14 15 -35
16 -167 11 -82 -4 -194 -10 -247 -13 -81 -6 -98 -4 -98 7 0 8 33 68 73 134
l72 120 135 12 c210 19 478 53 511 65 24 8 28 14 23 32 -9 29 -8 29 -51 17
-21 -6 -74 -11 -118 -11 -44 0 -138 -6 -210 -14 -205 -23 -225 -24 -230 -15
-10 15 12 19 211 39 243 25 314 37 314 57 0 9 -6 12 -18 8 -20 -6 -465 -45
-470 -41 -1 2 16 38 38 82 22 43 40 88 40 100 0 20 6 21 178 28 97 4 249 15
337 26 88 10 163 16 167 14 4 -2 9 0 13 5 3 6 11 8 18 6 7 -3 18 -1 25 3 19
12 -11 79 -40 88 -56 17 -152 18 -398 3z m-375 -166 c-8 -24 -98 -154 -102
-150 -5 6 91 166 101 167 4 0 5 -8 1 -17z m-115 -173 c0 -5 -5 -10 -11 -10 -5
0 -7 5 -4 10 3 6 8 10 11 10 2 0 4 -4 4 -10z m-140 -108 c0 -11 -179 -282
-186 -282 -7 0 50 100 135 238 30 47 51 66 51 44z m-188 -344 c-7 -7 -12 -8
-12 -2 0 6 3 14 7 17 3 4 9 5 12 2 2 -3 -1 -11 -7 -17z"/>
<path d="M4285 5584 c-9 -15 -12 -23 -6 -20 11 7 35 46 28 46 -3 0 -12 -12
-22 -26z"/>
<path d="M5721 5575 c0 -11 4 -27 9 -35 9 -13 10 -13 9 0 0 8 -4 24 -9 35 l-9
20 0 -20z"/>
<path d="M7369 5543 c-13 -16 -12 -17 4 -4 9 7 17 15 17 17 0 8 -8 3 -21 -13z"/>
<path d="M4159 5493 c-29 -35 -41 -53 -36 -53 2 0 17 16 31 35 28 36 31 49 5
18z"/>
<path d="M4080 5385 c-7 -9 -11 -17 -9 -20 3 -2 10 5 17 15 14 24 10 26 -8 5z"/>
<path d="M5785 5368 c4 -13 11 -27 16 -33 5 -5 4 5 -2 23 -12 36 -24 44 -14
10z"/>
<path d="M5890 5180 c6 -11 13 -20 16 -20 2 0 0 9 -6 20 -6 11 -13 20 -16 20
-2 0 0 -9 6 -20z"/>
<path d="M6672 5150 c0 -19 2 -27 5 -17 2 9 2 25 0 35 -3 9 -5 1 -5 -18z"/>
<path d="M7078 5023 c7 -3 16 -2 19 1 4 3 -2 6 -13 5 -11 0 -14 -3 -6 -6z"/>
<path d="M7400 4850 c-20 -6 -21 -8 -5 -8 11 0 29 3 40 8 25 11 -1 11 -35 0z"/>
<path d="M4640 3542 c0 -5 21 -63 46 -128 25 -65 57 -153 71 -194 14 -41 30
-79 34 -84 5 -6 9 57 9 146 l0 155 88 6 c48 4 287 14 532 22 426 15 479 19
468 31 -3 3 -169 12 -369 20 -200 8 -438 19 -529 24 -209 12 -350 12 -350 2z"/>
</g>
</svg>
