<?xml version="1.0" standalone="no"?>
<!DOCTYPE svg PUBLIC "-//W3C//DTD SVG 20010904//EN"
 "http://www.w3.org/TR/2001/REC-SVG-20010904/DTD/svg10.dtd">
<svg version="1.0" xmlns="http://www.w3.org/2000/svg"
 width="640.000000pt" height="640.000000pt" viewBox="0 0 640.000000 640.000000"
 preserveAspectRatio="xMidYMid meet">
<metadata>
Created by potrace 1.14, written by Peter Selinger 2001-2017
</metadata>
<g transform="translate(0.000000,640.000000) scale(0.100000,-0.100000)"
fill="#000000" stroke="none">
<path d="M3618 4832 c-20 -68 -45 -164 -63 -247 -13 -61 -67 -297 -85 -370 -5
-22 -19 -80 -30 -130 -11 -49 -28 -126 -38 -169 l-19 -80 -84 -27 c-263 -85
-923 -265 -1244 -339 -77 -17 -153 -36 -169 -41 -46 -14 -53 -12 -79 34 -38
63 -200 254 -368 432 -36 39 -86 92 -110 119 -130 143 -199 206 -226 206 -32
0 -55 -110 -99 -475 -14 -115 -34 -273 -44 -350 -25 -183 -46 -361 -65 -565
-8 -91 -20 -208 -25 -260 -5 -52 -12 -144 -16 -205 -3 -60 -8 -119 -10 -130
-4 -21 -17 -205 -34 -500 -13 -222 -48 -568 -80 -790 -6 -38 -17 -117 -25
-175 -8 -58 -24 -161 -35 -230 -11 -69 -27 -170 -35 -225 -13 -93 -39 -241
-50 -293 -5 -22 -4 -22 89 -22 l94 0 7 48 c4 26 11 54 16 63 5 9 16 59 25 110
57 332 113 775 124 978 5 106 12 202 14 214 3 12 7 74 10 137 29 610 47 965
51 1015 3 33 12 150 20 260 9 110 33 415 55 678 22 263 40 498 40 523 0 24 5
44 10 44 6 0 10 -4 10 -8 0 -9 86 -111 280 -333 74 -85 162 -188 195 -229 33
-41 63 -77 66 -80 3 -3 13 -19 22 -35 32 -63 45 -68 149 -55 116 14 201 27
253 40 22 5 105 23 185 40 126 27 408 98 740 187 52 14 118 31 145 38 28 7 89
24 138 39 48 14 97 26 110 26 43 0 85 36 92 77 3 21 12 67 20 103 54 247 111
619 120 770 2 47 7 85 11 85 4 0 29 -51 55 -113 137 -325 398 -794 453 -815 7
-3 58 -1 112 3 55 5 200 18 324 29 331 30 318 30 324 14 3 -7 2 -13 -2 -13 -4
0 -16 -26 -27 -57 -10 -32 -22 -63 -27 -69 -15 -20 -56 -244 -67 -360 -13
-142 -1 -297 35 -440 31 -124 80 -226 154 -319 27 -34 50 -65 50 -68 0 -3 -44
-33 -97 -66 -93 -59 -197 -125 -468 -297 -66 -42 -127 -80 -135 -85 -13 -7
-15 -41 -12 -221 1 -117 7 -260 13 -318 29 -300 52 -942 47 -1309 l-3 -231 68
0 68 0 -5 247 c-3 137 -8 390 -11 564 -9 479 -41 1099 -60 1129 -5 9 61 60 78
60 4 0 13 5 20 10 7 6 116 79 242 162 127 84 232 155 235 158 13 16 158 110
168 110 7 0 12 4 12 9 0 6 48 43 106 83 382 264 555 411 683 583 84 112 110
159 171 315 34 86 38 209 10 296 -30 91 -80 174 -136 223 -97 86 -259 139
-378 127 -28 -3 -87 -8 -131 -11 -158 -11 -594 -57 -815 -86 -302 -40 -364
-48 -440 -55 l-65 -6 -43 66 c-92 141 -131 211 -329 586 -96 181 -115 215
-141 250 -27 37 -61 70 -71 70 -3 0 -14 -26 -23 -58z m2117 -937 c14 -3 25
-10 25 -16 0 -7 -17 -9 -52 -4 -60 8 -63 9 -53 24 3 6 17 9 31 6 13 -3 35 -7
49 -10z m-460 -25 c4 -6 -17 -10 -55 -10 -38 0 -59 4 -55 10 3 6 28 10 55 10
27 0 52 -4 55 -10z m-255 -10 c0 -12 -28 -25 -36 -17 -9 9 6 27 22 27 8 0 14
-5 14 -10z m390 -20 c8 -5 11 -12 8 -16 -10 -9 -58 4 -58 16 0 13 30 13 50 0z
m-140 -80 c-8 -5 -17 -7 -19 -4 -3 3 1 9 9 14 8 5 17 7 19 4 3 -3 -1 -9 -9
-14z m405 -47 c3 -14 4 -28 0 -31 -3 -3 -5 2 -5 10 0 9 -7 18 -15 22 -8 3 -15
12 -15 20 0 24 27 7 35 -21z m-295 8 c13 -25 13 -68 -1 -76 -14 -9 -19 -2 -28
37 -12 54 7 80 29 39z m-60 -60 c0 -20 -5 -42 -12 -49 -13 -13 -108 -17 -108
-4 1 22 98 104 112 96 5 -3 8 -22 8 -43z m-212 -25 c-11 -48 -16 -56 -35 -56
-13 0 -23 3 -23 8 0 13 61 114 66 109 3 -3 0 -30 -8 -61z m512 32 c24 -39 26
-102 6 -150 -14 -32 -43 -66 -49 -57 -4 4 -25 89 -34 130 -5 28 30 109 47 109
6 0 19 -15 30 -32z m343 -2 c21 -44 31 -99 22 -125 -10 -32 -25 -25 -25 12 0
17 -7 57 -15 87 -18 65 -17 60 -7 60 5 0 16 -15 25 -34z m-120 -37 c22 -39 22
-85 0 -93 -21 -9 -33 10 -33 54 0 19 -3 45 -6 58 -9 32 16 20 39 -19z m-830
-11 c-11 -58 -23 -84 -33 -69 -8 14 5 66 23 89 15 19 17 15 10 -20z m759 -30
c8 -71 1 -98 -29 -98 -10 0 -13 6 -8 18 4 9 9 34 12 55 5 35 21 51 25 25z
m-862 -144 c0 -19 -4 -34 -10 -34 -5 0 -10 18 -10 41 0 24 4 38 10 34 6 -3 10
-22 10 -41z m420 -23 c0 -12 -20 -25 -27 -18 -7 7 6 27 18 27 5 0 9 -4 9 -9z
m290 -11 c0 -5 -4 -10 -10 -10 -5 0 -10 5 -10 10 0 6 5 10 10 10 6 0 10 -4 10
-10z m232 -112 c-9 -9 -15 -9 -24 0 -10 10 -10 15 2 22 20 12 38 -6 22 -22z
m-643 -44 c-6 -8 -15 -14 -20 -14 -14 0 -11 28 4 33 20 7 29 -4 16 -19z m346
-21 c-3 -21 -10 -42 -15 -47 -11 -11 -30 1 -25 17 19 54 26 67 36 67 8 0 9
-12 4 -37z m225 10 c0 -20 -24 -11 -28 10 -2 12 1 15 12 11 9 -3 16 -13 16
-21z m-683 -40 c-28 -28 -38 -9 -15 27 21 33 22 34 26 11 2 -13 -3 -30 -11
-38z m-152 -166 c18 -38 17 -68 -1 -74 -25 -8 -48 69 -48 157 0 124 16 148 25
38 4 -47 15 -102 24 -121z m745 153 c0 -5 -7 -10 -15 -10 -8 0 -15 5 -15 10 0
6 7 10 15 10 8 0 15 -4 15 -10z m100 -20 c0 -5 -4 -10 -10 -10 -5 0 -10 5 -10
10 0 6 5 10 10 10 6 0 10 -4 10 -10z m-415 -40 c6 -10 -15 -50 -27 -50 -10 0
-11 44 -1 53 9 10 21 9 28 -3z m143 -7 c5 -18 -28 -29 -38 -12 -5 7 -6 17 -3
22 7 12 35 5 41 -10z m-428 -64 c-6 -10 -15 -19 -20 -19 -13 0 -13 6 2 29 15
25 31 16 18 -10z m550 -10 c0 -19 -41 -69 -56 -69 -18 0 -18 2 7 44 20 34 49
49 49 25z m-191 -86 c1 -26 -19 -63 -34 -63 -1 0 -10 23 -19 51 -18 54 -15 64
19 71 23 4 33 -13 34 -59z m-109 -48 c11 -41 11 -48 -5 -65 -25 -27 -42 -25
-58 8 -22 42 1 101 39 102 6 0 17 -20 24 -45z m-230 -129 c-14 -14 -40 13 -40
43 l0 26 24 -30 c14 -18 21 -34 16 -39z m110 -85 c0 -14 -29 -22 -57 -15 -18
5 -21 9 -11 15 17 11 68 11 68 0z m-66 -111 c4 -4 -2 -11 -13 -15 -24 -7 -55
11 -45 27 6 9 43 2 58 -12z"/>
<path d="M2833 3177 c-45 -17 -104 -75 -133 -133 -20 -38 -25 -64 -25 -119 0
-84 20 -125 83 -170 35 -24 53 -29 100 -30 84 0 162 39 202 101 26 42 30 57
30 122 0 62 -4 82 -27 122 -48 86 -155 136 -230 107z"/>
<path d="M5990 2985 c-7 -9 -8 -15 -2 -15 5 0 12 7 16 15 3 8 4 15 2 15 -2 0
-9 -7 -16 -15z"/>
<path d="M5902 2894 c-7 -8 -8 -14 -3 -14 10 0 25 19 20 25 -2 1 -10 -3 -17
-11z"/>
<path d="M5420 2510 c-8 -5 -12 -12 -9 -15 4 -3 12 1 19 10 14 17 11 19 -10 5z"/>
<path d="M4660 1980 c-13 -8 -12 -10 3 -10 9 0 17 5 17 10 0 12 -1 12 -20 0z"/>
<path d="M4550 1921 c0 -5 9 -7 20 -4 11 3 20 7 20 9 0 2 -9 4 -20 4 -11 0
-20 -4 -20 -9z"/>
</g>
</svg>
